<?xml version="1.0" encoding="us-ascii" standalone="no"?><svg xmlns="http://www.w3.org/2000/svg" xmlns:xlink="http://www.w3.org/1999/xlink" contentStyleType="text/css" height="628px" preserveAspectRatio="none" style="width:425px;height:628px;background:#FFFFFF;" version="1.1" viewBox="0 0 425 628" width="425px" zoomAndPan="magnify"><defs/><g><rect fill="none" height="134.5527" style="stroke:#000000;stroke-width:1.5;" width="409.5" x="10" y="98.4883"/><rect fill="none" height="134.5527" style="stroke:#000000;stroke-width:1.5;" width="409.5" x="10" y="247.041"/><rect fill="none" height="134.5527" style="stroke:#000000;stroke-width:1.5;" width="409.5" x="10" y="395.5938"/><line style="stroke:#181818;stroke-width:0.5;stroke-dasharray:5.0,5.0;" x1="43" x2="43" y1="81.4883" y2="547.1465"/><line style="stroke:#181818;stroke-width:0.5;stroke-dasharray:5.0,5.0;" x1="184" x2="184" y1="81.4883" y2="547.1465"/><line style="stroke:#181818;stroke-width:0.5;stroke-dasharray:5.0,5.0;" x1="376.5" x2="376.5" y1="81.4883" y2="547.1465"/><text fill="#000000" font-family="sans-serif" font-size="14" lengthAdjust="spacing" textLength="40" x="20" y="78.5352">Client</text><ellipse cx="43" cy="13.5" fill="#E2E2F0" rx="8" ry="8" style="stroke:#181818;stroke-width:0.5;"/><path d="M43,21.5 L43,48.5 M30,29.5 L56,29.5 M43,48.5 L30,63.5 M43,48.5 L56,63.5 " fill="none" style="stroke:#181818;stroke-width:0.5;"/><text fill="#000000" font-family="sans-serif" font-size="14" lengthAdjust="spacing" textLength="40" x="20" y="559.6816">Client</text><ellipse cx="43" cy="571.1348" fill="#E2E2F0" rx="8" ry="8" style="stroke:#181818;stroke-width:0.5;"/><path d="M43,579.1348 L43,606.1348 M30,587.1348 L56,587.1348 M43,606.1348 L30,621.1348 M43,606.1348 L56,621.1348 " fill="none" style="stroke:#181818;stroke-width:0.5;"/><rect fill="#E2E2F0" height="30.4883" rx="2.5" ry="2.5" style="stroke:#181818;stroke-width:0.5;" width="178" x="95" y="50"/><text fill="#000000" font-family="sans-serif" font-size="14" lengthAdjust="spacing" textLength="164" x="102" y="70.5352">Storage Service Rest API</text><rect fill="#E2E2F0" height="30.4883" rx="2.5" ry="2.5" style="stroke:#181818;stroke-width:0.5;" width="178" x="95" y="546.1465"/><text fill="#000000" font-family="sans-serif" font-size="14" lengthAdjust="spacing" textLength="164" x="102" y="566.6816">Storage Service Rest API</text><rect fill="#E2E2F0" height="30.4883" rx="2.5" ry="2.5" style="stroke:#181818;stroke-width:0.5;" width="65" x="344.5" y="50"/><text fill="#000000" font-family="sans-serif" font-size="14" lengthAdjust="spacing" textLength="51" x="351.5" y="70.5352">AWS S3</text><rect fill="#E2E2F0" height="30.4883" rx="2.5" ry="2.5" style="stroke:#181818;stroke-width:0.5;" width="65" x="344.5" y="546.1465"/><text fill="#000000" font-family="sans-serif" font-size="14" lengthAdjust="spacing" textLength="51" x="351.5" y="566.6816">AWS S3</text><path d="M10,98.4883 L133,98.4883 L133,105.7988 L123,115.7988 L10,115.7988 L10,98.4883 " fill="#EEEEEE" style="stroke:#000000;stroke-width:1.5;"/><rect fill="none" height="134.5527" style="stroke:#000000;stroke-width:1.5;" width="409.5" x="10" y="98.4883"/><text fill="#000000" font-family="sans-serif" font-size="13" font-weight="bold" lengthAdjust="spacing" textLength="78" x="25" y="112.0566">Write_to_s3</text><polygon fill="#181818" points="172,133.1094,182,137.1094,172,141.1094,176,137.1094" style="stroke:#181818;stroke-width:1.0;"/><line style="stroke:#181818;stroke-width:1.0;" x1="43" x2="178" y1="137.1094" y2="137.1094"/><text fill="#000000" font-family="sans-serif" font-size="13" font-weight="bold" lengthAdjust="spacing" textLength="9" x="50" y="132.3672">1</text><text fill="#000000" font-family="sans-serif" font-size="13" lengthAdjust="spacing" textLength="74" x="63" y="132.3672">POST /write</text><polygon fill="#181818" points="365,162.4199,375,166.4199,365,170.4199,369,166.4199" style="stroke:#181818;stroke-width:1.0;"/><line style="stroke:#181818;stroke-width:1.0;" x1="184" x2="371" y1="166.4199" y2="166.4199"/><text fill="#000000" font-family="sans-serif" font-size="13" font-weight="bold" lengthAdjust="spacing" textLength="9" x="191" y="161.6777">2</text><text fill="#000000" font-family="sans-serif" font-size="13" lengthAdjust="spacing" textLength="59" x="204" y="161.6777">write(file)</text><polygon fill="#181818" points="195,191.7305,185,195.7305,195,199.7305,191,195.7305" style="stroke:#181818;stroke-width:1.0;"/><line style="stroke:#181818;stroke-width:1.0;" x1="189" x2="376" y1="195.7305" y2="195.7305"/><text fill="#000000" font-family="sans-serif" font-size="13" font-weight="bold" lengthAdjust="spacing" textLength="9" x="201" y="190.9883">3</text><text fill="#000000" font-family="sans-serif" font-size="13" lengthAdjust="spacing" textLength="18" x="214" y="190.9883">OK</text><polygon fill="#181818" points="54,221.041,44,225.041,54,229.041,50,225.041" style="stroke:#181818;stroke-width:1.0;"/><line style="stroke:#181818;stroke-width:1.0;" x1="48" x2="183" y1="225.041" y2="225.041"/><text fill="#000000" font-family="sans-serif" font-size="13" font-weight="bold" lengthAdjust="spacing" textLength="9" x="60" y="220.2988">4</text><text fill="#000000" font-family="sans-serif" font-size="13" lengthAdjust="spacing" textLength="18" x="73" y="220.2988">OK</text><path d="M10,247.041 L157,247.041 L157,254.3516 L147,264.3516 L10,264.3516 L10,247.041 " fill="#EEEEEE" style="stroke:#000000;stroke-width:1.5;"/><rect fill="none" height="134.5527" style="stroke:#000000;stroke-width:1.5;" width="409.5" x="10" y="247.041"/><text fill="#000000" font-family="sans-serif" font-size="13" font-weight="bold" lengthAdjust="spacing" textLength="102" x="25" y="260.6094">"Read from S3"</text><polygon fill="#181818" points="172,281.6621,182,285.6621,172,289.6621,176,285.6621" style="stroke:#181818;stroke-width:1.0;"/><line style="stroke:#181818;stroke-width:1.0;" x1="43" x2="178" y1="285.6621" y2="285.6621"/><text fill="#000000" font-family="sans-serif" font-size="13" font-weight="bold" lengthAdjust="spacing" textLength="9" x="50" y="280.9199">1</text><text fill="#000000" font-family="sans-serif" font-size="13" lengthAdjust="spacing" textLength="68" x="63" y="280.9199">GET /show</text><polygon fill="#181818" points="365,310.9727,375,314.9727,365,318.9727,369,314.9727" style="stroke:#181818;stroke-width:1.0;"/><line style="stroke:#181818;stroke-width:1.0;" x1="184" x2="371" y1="314.9727" y2="314.9727"/><text fill="#000000" font-family="sans-serif" font-size="13" font-weight="bold" lengthAdjust="spacing" textLength="9" x="191" y="310.2305">2</text><text fill="#000000" font-family="sans-serif" font-size="13" lengthAdjust="spacing" textLength="70" x="204" y="310.2305">read(s3file)</text><polygon fill="#181818" points="195,340.2832,185,344.2832,195,348.2832,191,344.2832" style="stroke:#181818;stroke-width:1.0;"/><line style="stroke:#181818;stroke-width:1.0;" x1="189" x2="376" y1="344.2832" y2="344.2832"/><text fill="#000000" font-family="sans-serif" font-size="13" font-weight="bold" lengthAdjust="spacing" textLength="9" x="201" y="339.541">3</text><text fill="#000000" font-family="sans-serif" font-size="13" lengthAdjust="spacing" textLength="35" x="214" y="339.541">s3file</text><polygon fill="#181818" points="54,369.5938,44,373.5938,54,377.5938,50,373.5938" style="stroke:#181818;stroke-width:1.0;"/><line style="stroke:#181818;stroke-width:1.0;" x1="48" x2="183" y1="373.5938" y2="373.5938"/><text fill="#000000" font-family="sans-serif" font-size="13" font-weight="bold" lengthAdjust="spacing" textLength="9" x="60" y="368.8516">4</text><text fill="#000000" font-family="sans-serif" font-size="13" lengthAdjust="spacing" textLength="35" x="73" y="368.8516">s3file</text><path d="M10,395.5938 L186,395.5938 L186,402.9043 L176,412.9043 L10,412.9043 L10,395.5938 " fill="#EEEEEE" style="stroke:#000000;stroke-width:1.5;"/><rect fill="none" height="134.5527" style="stroke:#000000;stroke-width:1.5;" width="409.5" x="10" y="395.5938"/><text fill="#000000" font-family="sans-serif" font-size="13" font-weight="bold" lengthAdjust="spacing" textLength="131" x="25" y="409.1621">"Get Presigned Url"</text><polygon fill="#181818" points="172,430.2148,182,434.2148,172,438.2148,176,434.2148" style="stroke:#181818;stroke-width:1.0;"/><line style="stroke:#181818;stroke-width:1.0;" x1="43" x2="178" y1="434.2148" y2="434.2148"/><text fill="#000000" font-family="sans-serif" font-size="13" font-weight="bold" lengthAdjust="spacing" textLength="9" x="50" y="429.4727">1</text><text fill="#000000" font-family="sans-serif" font-size="13" lengthAdjust="spacing" textLength="104" x="63" y="429.4727">GET /presigned/</text><polygon fill="#181818" points="365,459.5254,375,463.5254,365,467.5254,369,463.5254" style="stroke:#181818;stroke-width:1.0;"/><line style="stroke:#181818;stroke-width:1.0;" x1="184" x2="371" y1="463.5254" y2="463.5254"/><text fill="#000000" font-family="sans-serif" font-size="13" font-weight="bold" lengthAdjust="spacing" textLength="9" x="191" y="458.7832">2</text><text fill="#000000" font-family="sans-serif" font-size="13" lengthAdjust="spacing" textLength="156" x="204" y="458.7832">get_presigned_url(s3file)</text><polygon fill="#181818" points="195,488.8359,185,492.8359,195,496.8359,191,492.8359" style="stroke:#181818;stroke-width:1.0;"/><line style="stroke:#181818;stroke-width:1.0;" x1="189" x2="376" y1="492.8359" y2="492.8359"/><text fill="#000000" font-family="sans-serif" font-size="13" font-weight="bold" lengthAdjust="spacing" textLength="9" x="201" y="488.0938">3</text><text fill="#000000" font-family="sans-serif" font-size="13" lengthAdjust="spacing" textLength="59" x="214" y="488.0938">s3file_url</text><polygon fill="#181818" points="54,518.1465,44,522.1465,54,526.1465,50,522.1465" style="stroke:#181818;stroke-width:1.0;"/><line style="stroke:#181818;stroke-width:1.0;" x1="48" x2="183" y1="522.1465" y2="522.1465"/><text fill="#000000" font-family="sans-serif" font-size="13" font-weight="bold" lengthAdjust="spacing" textLength="9" x="60" y="517.4043">4</text><text fill="#000000" font-family="sans-serif" font-size="13" lengthAdjust="spacing" textLength="59" x="73" y="517.4043">s3file_url</text><!--SRC=[dP1D2u9054NtyoiUhceHBjor22H2eeNI52x5z6a3enDlnlhx-HaLXDfskEVUEIzEZ2BOIe6bOImdLTqW964mCYhI3eiheyggk20nrgLWjG6BrrIS8t2akqWGZgWDkC7UMaFWynFOZwQ3_SwrBMx8WJirqwONcP2uPCFhs8v_6Adllji6iKpPXqedQXqnJY4ZLJI34_syNQsdh-enCl-cH_NCGZlp_BhyHCS-_EtPQtfe823K8YynXJF9MQwtWRId6-TeeXSNLIJ_r6_GMITeWUOCJm00]--></g></svg>